G04*
G04 #@! TF.GenerationSoftware,Altium Limited,Altium Designer,24.2.2 (26)*
G04*
G04 Layer_Color=65535*
%FSLAX44Y44*%
%MOMM*%
G71*
G04*
G04 #@! TF.SameCoordinates,F2C55401-2C48-4F77-8023-E721376540C6*
G04*
G04*
G04 #@! TF.FilePolarity,Positive*
G04*
G01*
G75*
%ADD10C,0.2000*%
%ADD11C,0.4000*%
%ADD12C,0.2500*%
%ADD13C,0.1000*%
%ADD14C,0.2540*%
G36*
X591119Y111503D02*
X590674Y111017D01*
X591189Y111468D01*
X592000Y110728D01*
Y105510D01*
X591189Y104770D01*
X590343Y105510D01*
Y110675D01*
X590361D01*
X590674Y111017D01*
X590343Y110728D01*
Y110675D01*
X586782D01*
X586641Y110827D01*
Y106215D01*
X585813Y105475D01*
X585352Y105886D01*
X584984Y106290D01*
Y110869D01*
X585813Y111627D01*
X586378Y111110D01*
X586641Y110827D01*
Y110869D01*
X586378Y111110D01*
X585848Y111680D01*
X586483Y112350D01*
X590361D01*
X591119Y111503D01*
D02*
G37*
G36*
X581265Y111592D02*
Y106444D01*
X581247D01*
X580855Y106008D01*
X580436Y105633D01*
X579608Y106374D01*
Y111592D01*
X580436Y112350D01*
X581265Y111592D01*
D02*
G37*
G36*
X584984Y106290D02*
Y106215D01*
X585352Y105886D01*
X585760Y105440D01*
X585160Y104770D01*
X581247D01*
X580472Y105581D01*
X580855Y106008D01*
X581265Y106374D01*
Y106444D01*
X584843D01*
X584984Y106290D01*
D02*
G37*
G36*
X592000Y95533D02*
X590589Y96704D01*
X590361Y96978D01*
X590343D01*
Y96908D01*
X590589Y96704D01*
X591753Y95304D01*
X586465D01*
X585830Y95974D01*
X586145Y96306D01*
X585813Y96009D01*
X585257Y96505D01*
X585742Y95974D01*
X585160Y95304D01*
X579837D01*
X581052Y96747D01*
X579608Y95533D01*
Y102884D01*
X581265Y101491D01*
Y96978D01*
X581247D01*
X581052Y96747D01*
X581265Y96925D01*
Y96978D01*
X584826D01*
X584984Y96804D01*
Y96749D01*
X585257Y96505D01*
X584984Y96804D01*
Y101403D01*
X585813Y102161D01*
X586641Y101403D01*
Y96829D01*
X586145Y96306D01*
X586641Y96749D01*
Y96829D01*
X586782Y96978D01*
X590343D01*
Y101491D01*
X592000Y102884D01*
Y95533D01*
D02*
G37*
G36*
X590607Y91743D02*
X586765D01*
X585830Y92748D01*
X586465Y93418D01*
X592000D01*
X590607Y91743D01*
D02*
G37*
G36*
X585742Y92748D02*
X584890Y91813D01*
X584138D01*
X584067Y91743D01*
X581000D01*
X579590Y93418D01*
X585160D01*
X585742Y92748D01*
D02*
G37*
G36*
X592000Y85838D02*
X586483D01*
X585830Y86508D01*
X586782Y87512D01*
X590607D01*
X592000Y85838D01*
D02*
G37*
G36*
X585319Y90650D02*
X582181Y87512D01*
X584826D01*
X585742Y86508D01*
X585160Y85838D01*
X579573D01*
X580925Y87424D01*
X582093D01*
X582181Y87512D01*
X581000D01*
X580925Y87424D01*
X580895D01*
Y88605D01*
X584067Y91743D01*
X584826D01*
X584890Y91813D01*
X585302D01*
X585319Y90650D01*
D02*
G37*
G36*
X591119Y83105D02*
X590620Y82560D01*
X590343Y82312D01*
Y82277D01*
X586782D01*
X585830Y83282D01*
X586465Y83952D01*
X590361D01*
X591119Y83105D01*
D02*
G37*
G36*
X585742Y83282D02*
X584826Y82277D01*
X581265D01*
Y78046D01*
X581247D01*
X580855Y77610D01*
X580436Y77235D01*
X579608Y77976D01*
Y82312D01*
X580436Y83070D01*
X580912Y82635D01*
X581247Y82277D01*
X581265D01*
Y82312D01*
X580912Y82635D01*
X580472Y83105D01*
X581247Y83952D01*
X585160D01*
X585742Y83282D01*
D02*
G37*
G36*
X592000Y82312D02*
Y77976D01*
X591189Y77235D01*
X590761Y77610D01*
X590378Y78046D01*
X590343D01*
Y77976D01*
X590761Y77610D01*
X591136Y77182D01*
X590378Y76372D01*
X586483D01*
X585848Y77042D01*
X586782Y78046D01*
X590343D01*
Y82277D01*
X590361D01*
X590620Y82560D01*
X591189Y83070D01*
X592000Y82312D01*
D02*
G37*
G36*
X585742Y77042D02*
X585160Y76372D01*
X581247D01*
X580472Y77182D01*
X580855Y77610D01*
X581265Y77976D01*
Y78046D01*
X584843D01*
X585742Y77042D01*
D02*
G37*
G36*
Y73816D02*
X585163Y73169D01*
X585813Y73763D01*
X586641Y73005D01*
Y70290D01*
X586606Y70255D01*
Y69074D01*
X586641Y69073D01*
Y68431D01*
X586145Y67908D01*
X586641Y68351D01*
Y68431D01*
X586782Y68580D01*
X590607D01*
X592000Y66906D01*
X586483D01*
X585830Y67575D01*
X586145Y67908D01*
X585813Y67611D01*
X585257Y68107D01*
X585742Y67575D01*
X585160Y66906D01*
X579837D01*
X581009Y68298D01*
X579608Y67135D01*
Y72846D01*
X580436Y73604D01*
X580912Y73169D01*
X580472Y73639D01*
X581247Y74485D01*
X585160D01*
X585742Y73816D01*
D02*
G37*
G36*
X592000Y73287D02*
X587769Y69056D01*
X586641Y69073D01*
Y70290D01*
X590837Y74485D01*
X592000D01*
Y73287D01*
D02*
G37*
G36*
Y61212D02*
X591277Y60401D01*
X587417D01*
X586483Y61388D01*
X587099Y62076D01*
X591260D01*
X592000Y61212D01*
D02*
G37*
G36*
X581265Y63644D02*
Y61369D01*
X581124Y61212D01*
X581265Y61064D01*
Y61369D01*
X581899Y62076D01*
X585830D01*
X586394Y61388D01*
X585495Y60401D01*
X581899D01*
X581265Y61064D01*
Y58832D01*
X579608Y57440D01*
Y65037D01*
X581265Y63644D01*
D02*
G37*
G36*
X592000Y54002D02*
X591260Y53191D01*
X586765D01*
X585830Y54179D01*
X586465Y54866D01*
X591260D01*
X592000Y54002D01*
D02*
G37*
G36*
X585742Y54179D02*
X584826Y53191D01*
X580331D01*
X579573Y54002D01*
X580348Y54866D01*
X585160D01*
X585742Y54179D01*
D02*
G37*
G36*
X591119Y49666D02*
X590620Y49120D01*
X590343Y48872D01*
Y48837D01*
X586782D01*
X585830Y49842D01*
X586465Y50512D01*
X590361D01*
X591119Y49666D01*
D02*
G37*
G36*
X585742Y49842D02*
X584843Y48837D01*
X581265D01*
Y44607D01*
X581247D01*
X581009Y44324D01*
X581265Y44536D01*
Y44607D01*
X584826D01*
X585742Y43602D01*
X585160Y42932D01*
X579837D01*
X581009Y44324D01*
X579608Y43161D01*
Y48872D01*
X580436Y49630D01*
X580912Y49195D01*
X581247Y48837D01*
X581265D01*
Y48872D01*
X580912Y49195D01*
X580472Y49666D01*
X581247Y50512D01*
X585160D01*
X585742Y49842D01*
D02*
G37*
G36*
X592000Y48872D02*
Y43161D01*
X590589Y44332D01*
X590361Y44607D01*
X590343D01*
Y44536D01*
X590589Y44332D01*
X591753Y42932D01*
X586483D01*
X585830Y43584D01*
X586782Y44607D01*
X590343D01*
Y48837D01*
X590361D01*
X590620Y49120D01*
X591189Y49630D01*
X592000Y48872D01*
D02*
G37*
G36*
Y33695D02*
X590589Y34866D01*
X590361Y35141D01*
X590343D01*
Y35070D01*
X590589Y34866D01*
X591753Y33466D01*
X586465D01*
X585830Y34136D01*
X586145Y34468D01*
X585813Y34171D01*
X585257Y34668D01*
X585742Y34136D01*
X585160Y33466D01*
X579837D01*
X581052Y34909D01*
X579608Y33695D01*
Y41046D01*
X581265Y39653D01*
Y35141D01*
X581247D01*
X581052Y34909D01*
X581265Y35088D01*
Y35141D01*
X584826D01*
X584984Y34967D01*
Y34911D01*
X585257Y34668D01*
X584984Y34967D01*
Y39565D01*
X585813Y40323D01*
X586641Y39565D01*
Y34992D01*
X586145Y34468D01*
X586641Y34911D01*
Y34992D01*
X586782Y35141D01*
X590343D01*
Y39653D01*
X592000Y41046D01*
Y33695D01*
D02*
G37*
G36*
X590607Y29923D02*
X586765D01*
X585830Y30928D01*
X586465Y31597D01*
X592000D01*
X590607Y29923D01*
D02*
G37*
G36*
X585742Y30928D02*
X584843Y29923D01*
X581265D01*
Y27831D01*
X581212Y27772D01*
X581265Y27716D01*
Y25675D01*
X581247D01*
X581059Y25450D01*
X581265Y25622D01*
Y25675D01*
X584826D01*
X585742Y24670D01*
X585160Y24000D01*
X579837D01*
X581059Y25450D01*
X579608Y24247D01*
Y31333D01*
X581108Y30089D01*
X581247Y29923D01*
X581265D01*
Y29958D01*
X581108Y30089D01*
X579837Y31597D01*
X585160D01*
X585742Y30928D01*
D02*
G37*
G36*
Y27772D02*
X584984Y26961D01*
X581970D01*
X581265Y27716D01*
Y27831D01*
X581987Y28636D01*
X584984D01*
X585742Y27772D01*
D02*
G37*
G36*
X592000Y24000D02*
X586483D01*
X585830Y24670D01*
X586782Y25675D01*
X590607D01*
X592000Y24000D01*
D02*
G37*
%LPC*%
G36*
X580912Y73169D02*
X581247Y72811D01*
X581265D01*
Y72846D01*
X580912Y73169D01*
D02*
G37*
G36*
X585163Y73169D02*
X584984Y73005D01*
Y72968D01*
X584843Y72811D01*
X581265D01*
Y68580D01*
X581247D01*
X581009Y68298D01*
X581265Y68510D01*
Y68580D01*
X584826D01*
X584984Y68406D01*
Y68351D01*
X585257Y68107D01*
X584984Y68406D01*
Y72968D01*
X585163Y73169D01*
D02*
G37*
%LPD*%
D10*
X93500Y345000D02*
G03*
X93500Y344000I0J-500D01*
G01*
D02*
G03*
X93500Y345000I0J500D01*
G01*
D02*
G03*
X93500Y344000I0J-500D01*
G01*
X476000Y197000D02*
G03*
X476000Y198000I0J500D01*
G01*
D02*
G03*
X476000Y197000I0J-500D01*
G01*
D02*
G03*
X476000Y198000I0J500D01*
G01*
X29500Y65750D02*
G03*
X29500Y65750I-500J0D01*
G01*
X227750Y104000D02*
G03*
X227750Y104000I-500J0D01*
G01*
Y59000D02*
G03*
X227750Y59000I-500J0D01*
G01*
X167750D02*
G03*
X167750Y59000I-500J0D01*
G01*
X224500Y128000D02*
G03*
X224500Y128000I-500J0D01*
G01*
X448000Y106000D02*
G03*
X449000Y106000I500J0D01*
G01*
D02*
G03*
X448000Y106000I-500J0D01*
G01*
D02*
G03*
X449000Y106000I500J0D01*
G01*
X167750Y105000D02*
G03*
X167750Y105000I-500J0D01*
G01*
X578500Y143750D02*
G03*
X578500Y143750I-500J0D01*
G01*
X295000Y204000D02*
G03*
X294000Y204000I-500J0D01*
G01*
D02*
G03*
X295000Y204000I500J0D01*
G01*
D02*
G03*
X294000Y204000I-500J0D01*
G01*
X189500Y128000D02*
G03*
X189500Y128000I-500J0D01*
G01*
X273000Y54000D02*
G03*
X273000Y55000I0J500D01*
G01*
D02*
G03*
X273000Y54000I0J-500D01*
G01*
D02*
G03*
X273000Y55000I0J500D01*
G01*
X435000Y38000D02*
G03*
X434000Y38000I-500J0D01*
G01*
D02*
G03*
X435000Y38000I500J0D01*
G01*
D02*
G03*
X434000Y38000I-500J0D01*
G01*
X88000Y118000D02*
G03*
X88000Y117000I0J-500D01*
G01*
D02*
G03*
X88000Y118000I0J500D01*
G01*
D02*
G03*
X88000Y117000I0J-500D01*
G01*
X150000Y345000D02*
G03*
X150000Y344000I0J-500D01*
G01*
D02*
G03*
X150000Y345000I0J500D01*
G01*
D02*
G03*
X150000Y344000I0J-500D01*
G01*
X36000Y345000D02*
G03*
X36000Y344000I0J-500D01*
G01*
D02*
G03*
X36000Y345000I0J500D01*
G01*
D02*
G03*
X36000Y344000I0J-500D01*
G01*
X36000Y229000D02*
G03*
X36000Y228000I0J-500D01*
G01*
D02*
G03*
X36000Y229000I0J500D01*
G01*
D02*
G03*
X36000Y228000I0J-500D01*
G01*
X534000Y336000D02*
G03*
X533000Y336000I-500J0D01*
G01*
D02*
G03*
X534000Y336000I500J0D01*
G01*
D02*
G03*
X533000Y336000I-500J0D01*
G01*
X494000Y257000D02*
G03*
X495000Y257000I500J0D01*
G01*
D02*
G03*
X494000Y257000I-500J0D01*
G01*
D02*
G03*
X495000Y257000I500J0D01*
G01*
X345600Y126250D02*
G03*
X345600Y79750I0J-23250D01*
G01*
X409600D02*
G03*
X409600Y126250I0J23250D01*
G01*
X563000Y37000D02*
G03*
X562000Y37000I-500J0D01*
G01*
D02*
G03*
X563000Y37000I500J0D01*
G01*
D02*
G03*
X562000Y37000I-500J0D01*
G01*
X561000Y172000D02*
G03*
X560000Y172000I-500J0D01*
G01*
D02*
G03*
X561000Y172000I500J0D01*
G01*
D02*
G03*
X560000Y172000I-500J0D01*
G01*
X189500Y271600D02*
Y362999D01*
X214500D01*
Y256400D02*
Y362999D01*
X202000Y256400D02*
X214500D01*
X343500Y218500D02*
X406500D01*
Y155500D02*
Y218500D01*
X343500Y155500D02*
X406500D01*
X343500D02*
Y218500D01*
X581501Y272000D02*
Y376000D01*
X535500Y272000D02*
X581501D01*
X535500D02*
Y376000D01*
X581501D01*
X576500Y272000D02*
Y376000D01*
X90300Y123300D02*
X156300D01*
X77950Y224900D02*
X156300D01*
X386500Y271600D02*
Y312200D01*
X413500D01*
Y256400D02*
Y312200D01*
X400000Y256400D02*
X413500D01*
X385500Y340000D02*
Y380600D01*
X412500D01*
Y324800D02*
Y380600D01*
X399000Y324800D02*
X412500D01*
X424400Y368500D02*
X515800D01*
X424400D02*
Y393500D01*
X531000D01*
Y381000D02*
Y393500D01*
X78400Y349500D02*
X169800D01*
X78400D02*
Y374500D01*
X185000D01*
Y362000D02*
Y374500D01*
X19400Y347500D02*
X60000D01*
X19400D02*
Y374500D01*
X75200D01*
Y361000D02*
Y374500D01*
X175400Y3300D02*
X292200D01*
X175400D02*
Y30700D01*
X307400D01*
Y17000D02*
Y30700D01*
X345600Y79750D02*
X409600D01*
X345600Y126250D02*
X409600D01*
D11*
X331000Y227000D02*
G03*
X331000Y227000I-2000J0D01*
G01*
D12*
X543250Y369500D02*
G03*
X543250Y369500I-1250J0D01*
G01*
D13*
X316200Y103000D02*
G03*
X317200Y103000I500J0D01*
G01*
D02*
G03*
X316200Y103000I-500J0D01*
G01*
X68500Y235000D02*
Y340000D01*
Y235000D02*
X118500D01*
Y340000D01*
X68500D02*
X118500D01*
X451000Y202000D02*
X501000D01*
X451000D02*
Y307000D01*
X501000D01*
Y202000D02*
Y307000D01*
X453000Y81000D02*
Y131000D01*
X558000D01*
Y81000D02*
Y131000D01*
X453000Y81000D02*
X558000D01*
X290000Y179000D02*
Y229000D01*
X185000Y179000D02*
X290000D01*
X185000D02*
Y229000D01*
X290000D01*
X248000Y59000D02*
X298000D01*
X248000D02*
Y164000D01*
X298000D01*
Y59000D02*
Y164000D01*
X430000Y13000D02*
Y63000D01*
X325000Y13000D02*
X430000D01*
X325000D02*
Y63000D01*
X430000D01*
X63000Y113000D02*
X113000D01*
Y8000D02*
Y113000D01*
X63000Y8000D02*
X113000D01*
X63000D02*
Y113000D01*
X125000Y340000D02*
X175000D01*
Y235000D02*
Y340000D01*
X125000Y235000D02*
X175000D01*
X125000D02*
Y340000D01*
X11000D02*
X61000D01*
Y235000D02*
Y340000D01*
X11000Y235000D02*
X61000D01*
X11000D02*
Y340000D01*
Y224000D02*
X61000D01*
Y119000D02*
Y224000D01*
X11000Y119000D02*
X61000D01*
X11000D02*
Y224000D01*
X529000Y311000D02*
Y361000D01*
X424000Y311000D02*
X529000D01*
X424000D02*
Y361000D01*
X529000D01*
X578500Y224500D02*
Y244500D01*
Y224500D02*
Y244500D01*
X526000Y204501D02*
X571000D01*
X526000D02*
X571000D01*
X518500Y224500D02*
Y244500D01*
Y224500D02*
Y244500D01*
X526000Y264500D02*
X571000D01*
X526000D02*
X571000D01*
X558000Y12000D02*
Y62000D01*
X453000Y12000D02*
X558000D01*
X453000D02*
Y62000D01*
X558000D01*
X556000Y147001D02*
Y197000D01*
X451000Y147001D02*
X556000D01*
X451000D02*
Y197000D01*
X556000D01*
D14*
X90961Y299078D02*
X88421Y301618D01*
X83343D01*
X80804Y299078D01*
Y288922D01*
X83343Y286383D01*
X88421D01*
X90961Y288922D01*
X96039Y299078D02*
X98578Y301618D01*
X103657D01*
X106196Y299078D01*
Y296539D01*
X103657Y294000D01*
X101117D01*
X103657D01*
X106196Y291461D01*
Y288922D01*
X103657Y286383D01*
X98578D01*
X96039Y288922D01*
X365843Y110618D02*
Y108078D01*
X370922Y103000D01*
X376000Y108078D01*
Y110618D01*
X370922Y103000D02*
Y95382D01*
X381078D02*
X386157D01*
X383618D01*
Y110618D01*
X381078Y108078D01*
X542844Y394617D02*
Y381921D01*
X545383Y379382D01*
X550461D01*
X553000Y381921D01*
Y394617D01*
X558079Y379382D02*
X563157D01*
X560618D01*
Y394617D01*
X558079Y392078D01*
X555000Y198078D02*
X552461Y200618D01*
X547383D01*
X544843Y198078D01*
Y195539D01*
X547383Y193000D01*
X552461D01*
X555000Y190461D01*
Y187922D01*
X552461Y185382D01*
X547383D01*
X544843Y187922D01*
X560078Y185382D02*
X565157D01*
X562618D01*
Y200618D01*
X560078Y198078D01*
X567304Y117382D02*
Y132618D01*
X574922D01*
X577461Y130078D01*
Y125000D01*
X574922Y122461D01*
X567304D01*
X572383D02*
X577461Y117382D01*
X582539Y130078D02*
X585078Y132618D01*
X590157D01*
X592696Y130078D01*
Y127539D01*
X590157Y125000D01*
X592696Y122461D01*
Y119922D01*
X590157Y117382D01*
X585078D01*
X582539Y119922D01*
Y122461D01*
X585078Y125000D01*
X582539Y127539D01*
Y130078D01*
X585078Y125000D02*
X590157D01*
X213304Y167383D02*
Y182617D01*
X220922D01*
X223461Y180078D01*
Y175000D01*
X220922Y172461D01*
X213304D01*
X218382D02*
X223461Y167383D01*
X228539Y182617D02*
X238696D01*
Y180078D01*
X228539Y169922D01*
Y167383D01*
X174304Y167632D02*
Y182868D01*
X181922D01*
X184461Y180328D01*
Y175250D01*
X181922Y172711D01*
X174304D01*
X179382D02*
X184461Y167632D01*
X199696Y182868D02*
X194618Y180328D01*
X189539Y175250D01*
Y170172D01*
X192078Y167632D01*
X197157D01*
X199696Y170172D01*
Y172711D01*
X197157Y175250D01*
X189539D01*
X194304Y69383D02*
Y84618D01*
X201922D01*
X204461Y82078D01*
Y77000D01*
X201922Y74461D01*
X194304D01*
X199382D02*
X204461Y69383D01*
X219696Y84618D02*
X209539D01*
Y77000D01*
X214618Y79539D01*
X217157D01*
X219696Y77000D01*
Y71922D01*
X217157Y69383D01*
X212078D01*
X209539Y71922D01*
X193304Y112382D02*
Y127618D01*
X200922D01*
X203461Y125078D01*
Y120000D01*
X200922Y117461D01*
X193304D01*
X198382D02*
X203461Y112382D01*
X216157D02*
Y127618D01*
X208539Y120000D01*
X218696D01*
X135304Y19382D02*
Y34618D01*
X142922D01*
X145461Y32078D01*
Y27000D01*
X142922Y24461D01*
X135304D01*
X140382D02*
X145461Y19382D01*
X150539Y32078D02*
X153078Y34618D01*
X158157D01*
X160696Y32078D01*
Y29539D01*
X158157Y27000D01*
X155618D01*
X158157D01*
X160696Y24461D01*
Y21922D01*
X158157Y19382D01*
X153078D01*
X150539Y21922D01*
X15304Y40382D02*
Y55617D01*
X22922D01*
X25461Y53078D01*
Y48000D01*
X22922Y45461D01*
X15304D01*
X20382D02*
X25461Y40382D01*
X40696D02*
X30539D01*
X40696Y50539D01*
Y53078D01*
X38157Y55617D01*
X33078D01*
X30539Y53078D01*
X136843Y78383D02*
Y93617D01*
X144461D01*
X147000Y91078D01*
Y86000D01*
X144461Y83461D01*
X136843D01*
X141922D02*
X147000Y78383D01*
X152078D02*
X157157D01*
X154618D01*
Y93617D01*
X152078Y91078D01*
X41061Y343618D02*
X35983D01*
X38522D01*
Y330922D01*
X35983Y328382D01*
X33444D01*
X30904Y330922D01*
X46139Y343618D02*
X56296D01*
Y341078D01*
X46139Y330922D01*
Y328382D01*
X115861Y343618D02*
X110783D01*
X113322D01*
Y330922D01*
X110783Y328383D01*
X108244D01*
X105704Y330922D01*
X131096Y343618D02*
X126018Y341079D01*
X120939Y336001D01*
Y330922D01*
X123479Y328383D01*
X128557D01*
X131096Y330922D01*
Y333461D01*
X128557Y336001D01*
X120939D01*
X472461Y366618D02*
X467383D01*
X469922D01*
Y353922D01*
X467383Y351382D01*
X464843D01*
X462304Y353922D01*
X487696Y366618D02*
X477539D01*
Y359000D01*
X482617Y361539D01*
X485157D01*
X487696Y359000D01*
Y353922D01*
X485157Y351382D01*
X480078D01*
X477539Y353922D01*
X360461Y361618D02*
X355382D01*
X357922D01*
Y348922D01*
X355382Y346382D01*
X352843D01*
X350304Y348922D01*
X373157Y346382D02*
Y361618D01*
X365539Y354000D01*
X375696D01*
X364461Y305618D02*
X359383D01*
X361922D01*
Y292922D01*
X359383Y290382D01*
X356843D01*
X354304Y292922D01*
X369539Y303078D02*
X372078Y305618D01*
X377157D01*
X379696Y303078D01*
Y300539D01*
X377157Y298000D01*
X374618D01*
X377157D01*
X379696Y295461D01*
Y292922D01*
X377157Y290382D01*
X372078D01*
X369539Y292922D01*
X199387Y388523D02*
X194308D01*
X196847D01*
Y375827D01*
X194308Y373288D01*
X191769D01*
X189230Y375827D01*
X214622Y373288D02*
X204465D01*
X214622Y383444D01*
Y385983D01*
X212083Y388523D01*
X207004D01*
X204465Y385983D01*
X252000Y61617D02*
X246922D01*
X249461D01*
Y48922D01*
X246922Y46382D01*
X244382D01*
X241843Y48922D01*
X257078Y46382D02*
X262157D01*
X259618D01*
Y61617D01*
X257078Y59078D01*
X277456Y248618D02*
X282535D01*
X279995D01*
Y233382D01*
X277456D01*
X282535D01*
X300309Y246078D02*
X297770Y248618D01*
X292691D01*
X290152Y246078D01*
Y235922D01*
X292691Y233382D01*
X297770D01*
X300309Y235922D01*
X315544Y233382D02*
X305387D01*
X315544Y243539D01*
Y246078D01*
X313005Y248618D01*
X307926D01*
X305387Y246078D01*
X103495Y246618D02*
X108574D01*
X106034D01*
Y231383D01*
X103495D01*
X108574D01*
X126348Y244078D02*
X123809Y246618D01*
X118730D01*
X116191Y244078D01*
Y233922D01*
X118730Y231383D01*
X123809D01*
X126348Y233922D01*
X131426Y231383D02*
X136505D01*
X133966D01*
Y246618D01*
X131426Y244078D01*
X265113Y119078D02*
X262574Y121617D01*
X257495D01*
X254956Y119078D01*
Y108922D01*
X257495Y106383D01*
X262574D01*
X265113Y108922D01*
X270191Y106383D02*
X275270D01*
X272730D01*
Y121617D01*
X270191Y119078D01*
X282887D02*
X285426Y121617D01*
X290505D01*
X293044Y119078D01*
Y116539D01*
X290505Y114000D01*
X287966D01*
X290505D01*
X293044Y111461D01*
Y108922D01*
X290505Y106383D01*
X285426D01*
X282887Y108922D01*
X227113Y210078D02*
X224574Y212617D01*
X219495D01*
X216956Y210078D01*
Y199922D01*
X219495Y197383D01*
X224574D01*
X227113Y199922D01*
X232191Y197383D02*
X237270D01*
X234730D01*
Y212617D01*
X232191Y210078D01*
X255044Y197383D02*
X244887D01*
X255044Y207539D01*
Y210078D01*
X252505Y212617D01*
X247426D01*
X244887Y210078D01*
X495461Y50078D02*
X492922Y52618D01*
X487843D01*
X485304Y50078D01*
Y39922D01*
X487843Y37383D01*
X492922D01*
X495461Y39922D01*
X500539Y37383D02*
X505617D01*
X503078D01*
Y52618D01*
X500539Y50078D01*
X513235Y37383D02*
X518313D01*
X515774D01*
Y52618D01*
X513235Y50078D01*
X367113Y43078D02*
X364574Y45618D01*
X359495D01*
X356956Y43078D01*
Y32922D01*
X359495Y30382D01*
X364574D01*
X367113Y32922D01*
X372191Y30382D02*
X377270D01*
X374730D01*
Y45618D01*
X372191Y43078D01*
X384887D02*
X387426Y45618D01*
X392505D01*
X395044Y43078D01*
Y32922D01*
X392505Y30382D01*
X387426D01*
X384887Y32922D01*
Y43078D01*
X496461Y190078D02*
X493922Y192618D01*
X488843D01*
X486304Y190078D01*
Y179922D01*
X488843Y177383D01*
X493922D01*
X496461Y179922D01*
X501539D02*
X504078Y177383D01*
X509157D01*
X511696Y179922D01*
Y190078D01*
X509157Y192618D01*
X504078D01*
X501539Y190078D01*
Y187539D01*
X504078Y185000D01*
X511696D01*
X495461Y111078D02*
X492922Y113617D01*
X487843D01*
X485304Y111078D01*
Y100922D01*
X487843Y98383D01*
X492922D01*
X495461Y100922D01*
X500539Y111078D02*
X503078Y113617D01*
X508157D01*
X510696Y111078D01*
Y108539D01*
X508157Y106000D01*
X510696Y103461D01*
Y100922D01*
X508157Y98383D01*
X503078D01*
X500539Y100922D01*
Y103461D01*
X503078Y106000D01*
X500539Y108539D01*
Y111078D01*
X503078Y106000D02*
X508157D01*
X83461Y68078D02*
X80922Y70617D01*
X75843D01*
X73304Y68078D01*
Y57922D01*
X75843Y55382D01*
X80922D01*
X83461Y57922D01*
X88539Y70617D02*
X98696D01*
Y68078D01*
X88539Y57922D01*
Y55382D01*
X473461Y340078D02*
X470922Y342617D01*
X465843D01*
X463304Y340078D01*
Y329921D01*
X465843Y327382D01*
X470922D01*
X473461Y329921D01*
X488696Y342617D02*
X483618Y340078D01*
X478539Y335000D01*
Y329921D01*
X481078Y327382D01*
X486157D01*
X488696Y329921D01*
Y332461D01*
X486157Y335000D01*
X478539D01*
X472461Y262078D02*
X469921Y264618D01*
X464843D01*
X462304Y262078D01*
Y251922D01*
X464843Y249383D01*
X469921D01*
X472461Y251922D01*
X487696Y264618D02*
X477539D01*
Y257000D01*
X482617Y259539D01*
X485157D01*
X487696Y257000D01*
Y251922D01*
X485157Y249383D01*
X480078D01*
X477539Y251922D01*
X30461Y178078D02*
X27922Y180618D01*
X22843D01*
X20304Y178078D01*
Y167922D01*
X22843Y165382D01*
X27922D01*
X30461Y167922D01*
X43157Y165382D02*
Y180618D01*
X35539Y173000D01*
X45696D01*
X30461Y299078D02*
X27922Y301618D01*
X22843D01*
X20304Y299078D01*
Y288922D01*
X22843Y286383D01*
X27922D01*
X30461Y288922D01*
X45696Y286383D02*
X35539D01*
X45696Y296539D01*
Y299078D01*
X43157Y301618D01*
X38078D01*
X35539Y299078D01*
X149000D02*
X146461Y301618D01*
X141383D01*
X138843Y299078D01*
Y288922D01*
X141383Y286383D01*
X146461D01*
X149000Y288922D01*
X154078Y286383D02*
X159157D01*
X156618D01*
Y301618D01*
X154078Y299078D01*
M02*
