M48
;Layer_Color=9474304
;FILE_FORMAT=4:4
METRIC,LZ
;TYPE=PLATED
T01F00S00C0.6300
T02F00S00C0.7112
T03F00S00C0.7300
T04F00S00C0.8000
T05F00S00C1.0500
T06F00S00C1.1000
;TYPE=NON_PLATED
T07F00S00C1.5240
%
T01
X003532Y00103
X00402
T02
X00140462Y00037084
X00388112Y00126746
X00355Y00160782
X0033274Y0014859
X00365252Y00195072
X00344932Y00244348
X00387Y00255524
X00417068Y0023622
X00363Y00282599
X00241046Y00375666
T03
X000836Y00136
X00163
Y001614
Y001868
Y002122
X000836
Y001868
Y001614
T04
X00088Y00023
Y00098
X00036Y00134
X00273Y00074
X0034Y00038
X00415
X00468Y00037
Y00106
X00543
Y00037
X00541Y00172
X00466
X00476Y00217
Y00291999
X00439Y00336
X00514
X00275Y00204
X00273Y00149
X002Y00204
X0015Y0025
Y00325
X000935
X00036
Y0025
X00036Y00209
X000935Y0025
T05
X00581Y00212
Y00257
X00516
Y00212
T06
X001906Y00017
X00216
X002414
X002668
X002922
X00553Y002986
Y00324
Y003494
X005158Y00381
X004904
X00465
X004396
X00399Y003654
Y0034
X004Y00297
Y002716
X00202Y002716
Y00297
Y003224
Y003478
X001698Y00362
X001444
X00119
X000936
X0006Y00361
X000346
T07
X00012Y00012
X00587
Y00388
X00012
M30
