G04*
G04 #@! TF.GenerationSoftware,Altium Limited,Altium Designer,24.2.2 (26)*
G04*
G04 Layer_Physical_Order=2*
G04 Layer_Color=16711680*
%FSLAX44Y44*%
%MOMM*%
G71*
G04*
G04 #@! TF.SameCoordinates,F2C55401-2C48-4F77-8023-E721376540C6*
G04*
G04*
G04 #@! TF.FilePolarity,Positive*
G04*
G01*
G75*
%ADD14C,0.2540*%
%ADD36C,0.5080*%
%ADD37C,1.3000*%
%ADD38C,1.6500*%
%ADD39R,1.6500X1.6500*%
%ADD40R,1.7000X1.7000*%
%ADD41C,1.7000*%
%ADD42C,1.1300*%
%ADD43R,1.1300X1.1300*%
%ADD44R,1.6500X1.6500*%
%ADD45C,1.5750*%
%ADD46C,1.1550*%
%ADD47R,1.1550X1.1550*%
%ADD48C,1.2700*%
D14*
X365252Y152400D02*
Y195072D01*
X399000Y365400D02*
X415000Y349400D01*
X553000D01*
X380238Y262286D02*
Y377190D01*
X388112Y126746D02*
Y203200D01*
X316738Y87122D02*
X386122D01*
X402000Y103000D01*
X262636Y141224D02*
X316738Y87122D01*
X91186Y221996D02*
X139192Y173990D01*
X47498Y221996D02*
X91186D01*
X58200Y186800D02*
X83600D01*
X36000Y209000D02*
X58200Y186800D01*
X73914Y151714D02*
X83600Y161400D01*
X73914Y37087D02*
Y151714D01*
Y37087D02*
X88000Y23000D01*
X241046Y375666D02*
X371721Y244991D01*
X408297D01*
X417068Y236220D01*
X380238Y262286D02*
X387000Y255524D01*
X380238Y377190D02*
X396240Y393192D01*
X478208D01*
X490400Y381000D01*
X34600Y361000D02*
X64760Y391160D01*
X254439D01*
X363000Y282599D01*
X163000Y186800D02*
X312310D01*
X350520Y148590D01*
X361442D01*
X365252Y152400D01*
X140462Y37084D02*
X221316D01*
X241400Y17000D01*
X514000Y336000D02*
X514550Y336550D01*
X359977Y231335D02*
X388112Y203200D01*
X340360Y231335D02*
X359977D01*
X334680Y237015D02*
X340360Y231335D01*
X334680Y237015D02*
Y256632D01*
X207518Y383794D02*
X334680Y256632D01*
X140794Y383794D02*
X207518D01*
X119000Y362000D02*
X140794Y383794D01*
X501866Y197866D02*
X516000Y212000D01*
X439420Y197866D02*
X501866D01*
X398780Y238506D02*
X439420Y197866D01*
X350774Y238506D02*
X398780D01*
X344932Y244348D02*
X350774Y238506D01*
X163000Y136000D02*
X172466Y145466D01*
Y167640D01*
X166116Y173990D02*
X172466Y167640D01*
X139192Y173990D02*
X166116D01*
X25654Y243840D02*
X47498Y221996D01*
X25654Y243840D02*
Y256540D01*
X29718Y260604D01*
X82896D01*
X93500Y250000D01*
X331216Y148590D02*
X332740D01*
X310134Y169672D02*
X331216Y148590D01*
X274320Y169672D02*
X310134D01*
X262636Y157988D02*
X274320Y169672D01*
X262636Y141224D02*
Y157988D01*
X144400Y362000D02*
X156542Y374142D01*
X203200D01*
X214122Y363220D01*
Y301660D02*
Y363220D01*
Y301660D02*
X355000Y160782D01*
X241400Y17000D02*
X266800D01*
D36*
X514000Y336000D02*
X514800D01*
X521000Y291999D02*
X527979Y285020D01*
X566580Y292975D02*
Y310420D01*
X553000Y324000D02*
X566580Y310420D01*
X527979Y285020D02*
X558625D01*
X514800Y336000D02*
X552200Y298600D01*
X558625Y285020D02*
X566580Y292975D01*
X552200Y298600D02*
X553000D01*
X476000Y291999D02*
X521000D01*
X191824Y212200D02*
X195203Y215580D01*
X263420D01*
X275000Y204000D01*
X163000Y212200D02*
X191824D01*
X400000Y271600D02*
X455600D01*
X476000Y291999D01*
X425580Y48580D02*
X531420D01*
X543000Y37000D01*
X415000Y38000D02*
X425580Y48580D01*
X531420Y117580D02*
X543000Y106000D01*
X395110Y117580D02*
X531420D01*
X392846Y115316D02*
X395110Y117580D01*
X306684Y115316D02*
X392846D01*
X273000Y149000D02*
X306684Y115316D01*
X190600Y17000D02*
X216000D01*
X93000Y361000D02*
X94600D01*
X77124Y250000D02*
X125654Y201470D01*
X36000Y250000D02*
X77124D01*
X176941Y201470D02*
X179471Y204000D01*
X125654Y201470D02*
X176941D01*
X179471Y204000D02*
X200000D01*
X107800Y347800D02*
X202000D01*
X94600Y361000D02*
X107800Y347800D01*
X93000Y361000D02*
X93600Y361600D01*
Y362000D01*
D37*
X93500Y325000D02*
D03*
Y250000D02*
D03*
X476000Y291999D02*
D03*
Y217000D02*
D03*
X543000Y106000D02*
D03*
X468000D02*
D03*
X200000Y204000D02*
D03*
X275000D02*
D03*
X273000Y149000D02*
D03*
Y74000D02*
D03*
X340000Y38000D02*
D03*
X415000D02*
D03*
X88000Y23000D02*
D03*
Y98000D02*
D03*
X150000Y250000D02*
D03*
Y325000D02*
D03*
X36000Y250000D02*
D03*
Y325000D02*
D03*
X36000Y134000D02*
D03*
Y209000D02*
D03*
X439000Y336000D02*
D03*
X514000D02*
D03*
X468000Y37000D02*
D03*
X543000D02*
D03*
X466000Y172000D02*
D03*
X541000D02*
D03*
D38*
X202000Y347800D02*
D03*
Y322400D02*
D03*
Y297000D02*
D03*
X400000Y297000D02*
D03*
X399000Y365400D02*
D03*
X439600Y381000D02*
D03*
X465000D02*
D03*
X490400D02*
D03*
X93600Y362000D02*
D03*
X119000D02*
D03*
X144400D02*
D03*
X34600Y361000D02*
D03*
X190600Y17000D02*
D03*
X216000D02*
D03*
X241400D02*
D03*
X266800D02*
D03*
D39*
X202000Y271600D02*
D03*
X400000Y271600D02*
D03*
X399000Y340000D02*
D03*
D40*
X553000Y349400D02*
D03*
D41*
Y324000D02*
D03*
Y298600D02*
D03*
D42*
X163000Y212200D02*
D03*
Y186800D02*
D03*
Y161400D02*
D03*
Y136000D02*
D03*
X83600D02*
D03*
Y161400D02*
D03*
Y186800D02*
D03*
D43*
Y212200D02*
D03*
D44*
X515800Y381000D02*
D03*
X169800Y362000D02*
D03*
X60000Y361000D02*
D03*
X292200Y17000D02*
D03*
D45*
X581000Y257000D02*
D03*
Y212000D02*
D03*
X516000D02*
D03*
Y257000D02*
D03*
D46*
X402000Y103000D02*
D03*
D47*
X353200D02*
D03*
D48*
X365252Y195072D02*
D03*
X388112Y126746D02*
D03*
X241046Y375666D02*
D03*
X417068Y236220D02*
D03*
X387000Y255524D02*
D03*
X363000Y282599D02*
D03*
X140462Y37084D02*
D03*
X344932Y244348D02*
D03*
X332740Y148590D02*
D03*
X355000Y160782D02*
D03*
M02*
