G04*
G04 #@! TF.GenerationSoftware,Altium Limited,Altium Designer,24.2.2 (26)*
G04*
G04 Layer_Color=8421504*
%FSLAX44Y44*%
%MOMM*%
G71*
G04*
G04 #@! TF.SameCoordinates,F2C55401-2C48-4F77-8023-E721376540C6*
G04*
G04*
G04 #@! TF.FilePolarity,Positive*
G04*
G01*
G75*
%ADD15R,1.2500X1.1500*%
%ADD16R,1.1500X1.2500*%
%ADD17R,1.5000X0.6000*%
%ADD18R,0.6000X1.5000*%
D15*
X29000Y97750D02*
D03*
Y74250D02*
D03*
X224000Y160000D02*
D03*
Y136500D02*
D03*
X578000Y175750D02*
D03*
Y152250D02*
D03*
X189000Y160000D02*
D03*
Y136500D02*
D03*
D16*
X195250Y104000D02*
D03*
X218750D02*
D03*
X195250Y59000D02*
D03*
X218750D02*
D03*
X135250Y59000D02*
D03*
X158750D02*
D03*
X135250Y105000D02*
D03*
X158750D02*
D03*
D17*
X332500Y215000D02*
D03*
Y207000D02*
D03*
Y199000D02*
D03*
Y191000D02*
D03*
Y183000D02*
D03*
Y175000D02*
D03*
Y167000D02*
D03*
Y159000D02*
D03*
X417500D02*
D03*
Y167000D02*
D03*
Y175000D02*
D03*
Y183000D02*
D03*
Y191000D02*
D03*
Y199000D02*
D03*
Y207000D02*
D03*
Y215000D02*
D03*
D18*
X347000Y144500D02*
D03*
X355000D02*
D03*
X363000D02*
D03*
X371000D02*
D03*
X379000D02*
D03*
X387000D02*
D03*
X395000D02*
D03*
X403000D02*
D03*
Y229500D02*
D03*
X395000D02*
D03*
X387000D02*
D03*
X379000D02*
D03*
X371000D02*
D03*
X363000D02*
D03*
X355000D02*
D03*
X347000D02*
D03*
M02*
